<?xml version="1.0" encoding="utf-8"?>
<!-- Generator: Adobe Illustrator 26.5.0, SVG Export Plug-In . SVG Version: 6.00 Build 0)  -->
<svg version="1.1" id="Camada_1" xmlns="http://www.w3.org/2000/svg" xmlns:xlink="http://www.w3.org/1999/xlink" x="0px" y="0px"
	 viewBox="0 0 43 45" style="enable-background:new 0 0 43 45;" xml:space="preserve">
<style type="text/css">
	.st0{fill:#FFFFFF;}
</style>
<path class="st0" d="M9.1,3.6c8.4,0,16.8,0,25.2,0c0.5,0,0.9,0.2,1.3,0.5c0.3,0.3,0.6,0.8,0.6,1.3c0,1.4,0,2.7,0,4.1
	c0,5.4,0,10.9,0,16.3c0,1.4,0,2.8,0,4.2c-9,0-18,0-27,0C9.1,21.2,9.1,12.4,9.1,3.6L9.1,3.6z M18.7,10.2c-0.5,0.4-1,0.8-1.3,1.4
	c-0.3,0.6-0.5,1.2-0.5,1.8c1.1,0,2.3,0,3.4,0c0-0.3,0.2-0.7,0.3-0.9c0.2-0.2,0.4-0.4,0.7-0.6c0.3-0.1,0.6-0.2,0.8-0.2
	c0.5,0,1.2,0.1,1.5,0.6c0.3,0.4,0.3,0.9,0.3,1.4c0,0.2,0,0.5-0.2,0.7c-0.1,0.2-0.3,0.4-0.5,0.5c-0.8,0.5-1.7,0.3-2.6,0.3
	c0,0.8,0,1.6,0,2.4c1.1,0,2.3-0.1,3.2,0.5c0.7,0.5,0.6,1.4,0.6,2.2c0,0.3-0.2,0.6-0.3,0.8c-0.2,0.2-0.4,0.4-0.7,0.5
	c-0.7,0.2-1.4,0.2-2.1,0c-0.3-0.1-0.6-0.3-0.7-0.6c-0.2-0.3-0.3-0.6-0.3-0.9c-1.1,0-2.3,0-3.4,0c0,0.7,0.2,1.3,0.6,1.9
	c0.3,0.6,0.8,1.1,1.3,1.4c1.1,0.7,2.5,1,3.8,1c1.4,0,2.9-0.3,4.1-1.2c0.9-0.7,1.5-1.7,1.5-2.8c0-0.8,0.1-1.6-0.3-2.3
	c-0.5-1.1-1.7-1.7-2.9-1.9c0.6-0.2,1.2-0.5,1.7-0.9c0.5-0.4,0.8-1,0.9-1.6c0-0.8,0.1-1.7-0.4-2.5c-0.7-1.3-2.2-1.9-3.6-2.1
	C21.9,9,20.1,9.2,18.7,10.2z"/>
<path class="st0" d="M8.1,4.2c0.3-0.2,0.6-0.4,1-0.6c0,8.8,0,17.6,0,26.4c-0.9,0.5-1.7,1.1-2.6,1.6c-1,0.6-2.1,1.3-3.1,1.9
	c0-8.8,0-17.6,0-26.4C5,6.1,6.6,5.1,8.1,4.2z"/>
<path class="st0" d="M36.4,9.7H39c0,10.6,0,21.1,0,31.7c-10.1,0-20.2,0-30.3,0c-0.5,0-1-0.2-1.3-0.5S6.8,40,6.8,39.5
	c0-2.6,0-5.1,0-7.7c0.9-0.5,1.7-1.1,2.6-1.6c9,0,18,0,27,0c0-1.4,0-2.8,0-4.2C36.4,20.6,36.4,15.2,36.4,9.7z M14.7,32.9
	c0,1.8,0,3.7,0,5.5h1.2c0-1.2,0-2.5,0-3.7c0.3,1.2,0.6,2.5,1,3.7c0.4,0,0.9,0,1.3,0c0.3-1.2,0.6-2.4,0.9-3.6c0,1.2,0,2.4,0,3.5h1.3
	c0-1.8,0-3.7,0-5.5c-0.6,0-1.1,0-1.7,0c-0.4,1.5-0.8,3-1.2,4.4c-0.4-1.5-0.7-2.9-1.1-4.4C15.9,32.8,15.3,32.9,14.7,32.9L14.7,32.9z
	 M22.7,32.9c-0.5,1.8-1.1,3.7-1.6,5.5c0.5,0,0.9,0,1.4,0c0.1-0.4,0.2-0.8,0.3-1.2c0.6,0,1.1,0,1.7,0c0.1,0.4,0.2,0.8,0.3,1.2h1.4
	c-0.6-1.8-1.1-3.7-1.7-5.5L22.7,32.9z M26.8,32.9c0.5,0.8,1,1.7,1.5,2.5c0.1,0.1,0,0.2-0.1,0.3c-0.5,0.9-1.1,1.8-1.6,2.7
	c0.5,0,1,0,1.5,0c0.3-0.7,0.7-1.4,1.1-2.1c0.4,0.7,0.7,1.4,1.1,2.1c0.5,0,1,0,1.6,0c-0.5-0.9-1.1-1.9-1.6-2.8c0-0.1-0.2-0.2-0.1-0.3
	c0.5-0.8,1-1.6,1.5-2.4c-0.5,0-1,0-1.4,0c-0.4,0.6-0.7,1.2-1,1.8c-0.3-0.6-0.6-1.2-1-1.8C27.8,32.9,27.3,32.9,26.8,32.9L26.8,32.9z"
	/>
<path class="st0" d="M23.1,36.2c0.2-0.8,0.4-1.6,0.6-2.4c0.2,0.8,0.4,1.6,0.6,2.4C23.8,36.2,23.5,36.2,23.1,36.2z"/>
</svg>
