<svg width="58" height="36" viewBox="0 0 58 36" fill="none" xmlns="http://www.w3.org/2000/svg">
<path d="M22.3449 26.6585H9.89791L7.36548 34.5137C7.331 34.6567 7.24755 34.7832 7.12951 34.8714C7.01146 34.9596 6.86623 35.004 6.71884 34.997H0.414637C0.055125 34.997 -0.0706001 34.8001 0.0374613 34.4063L10.814 3.60315C10.9217 3.28101 11.0295 2.96607 11.1372 2.55403C11.2784 1.8376 11.3505 1.10938 11.3528 0.379276C11.3455 0.328216 11.3502 0.276164 11.3666 0.227238C11.3829 0.178313 11.4105 0.133855 11.4471 0.0973828C11.4837 0.0609103 11.5283 0.0334222 11.5774 0.0170953C11.6265 0.000768484 11.6787 -0.00395036 11.7299 0.00331201H20.2973C20.5481 0.00331201 20.6918 0.0928324 20.7284 0.271871L32.9596 34.4599C33.0673 34.8182 32.9596 34.9972 32.6364 34.997H25.6316C25.5113 35.0103 25.3903 34.9795 25.2911 34.9103C25.192 34.8411 25.1215 34.7383 25.0929 34.6211L22.3449 26.6585ZM11.8378 20.0352H20.3512C20.1357 19.3196 19.8842 18.5141 19.5967 17.6187C19.3088 16.7243 19.0035 15.7667 18.6808 14.7458C18.3576 13.7256 18.0343 12.7053 17.7109 11.6849C17.3877 10.6647 17.0913 9.68019 16.8218 8.73145C16.5525 7.78336 16.31 6.91523 16.0944 6.12707H16.0405C15.7373 7.57739 15.3596 9.01125 14.909 10.423C14.4055 12.034 13.8936 13.6808 13.3734 15.3634C12.8523 17.0465 12.3404 18.6038 11.8378 20.0352Z" fill="white"/>
<path d="M51.8938 23.7882H41.4337C41.5618 24.8478 41.9055 25.8681 42.4426 26.7832C43.0364 27.6894 43.8761 28.398 44.8584 28.8216C46.1896 29.4114 47.6295 29.7003 49.0797 29.6687C50.2303 29.6461 51.3765 29.5173 52.5044 29.2837C53.5133 29.1443 54.502 28.8805 55.4489 28.4979C55.6256 28.3536 55.7145 28.4436 55.7145 28.7698V33.9338C55.7232 34.0745 55.6957 34.2151 55.6348 34.3416C55.574 34.4404 55.4923 34.5239 55.3958 34.5861C54.3454 35.0624 53.2399 35.3996 52.1062 35.5894C50.566 35.8856 49.0006 36.0221 47.4336 35.9971C44.9197 35.9971 42.8135 35.5985 41.115 34.8012C39.5093 34.077 38.0911 32.9788 36.9735 31.594C35.9296 30.2892 35.153 28.7825 34.6903 27.1637C34.232 25.566 33.9996 23.9094 34.0001 22.2442C33.9952 20.4261 34.273 18.6187 34.8231 16.8899C35.3529 15.2036 36.1907 13.6356 37.2921 12.2694C38.3784 10.9191 39.7368 9.82512 41.2744 9.06221C42.8316 8.28333 44.6726 8.00392 46.7964 8.00392C48.5578 7.95834 50.3073 8.31096 51.9204 9.03668C53.2767 9.62891 54.4708 10.5522 55.3982 11.7258C56.2681 12.875 56.9331 14.1723 57.3628 15.5581C57.7811 16.8935 57.9961 18.287 58 19.6894C58 20.4869 57.9734 21.2117 57.9203 21.8637C57.8673 22.516 57.8231 22.9871 57.7876 23.2771C57.7738 23.3969 57.7175 23.5074 57.6294 23.5876C57.5413 23.6677 57.4275 23.712 57.3096 23.712C57.0972 23.712 56.7344 23.7391 56.2212 23.7935C55.7077 23.8478 55.0705 23.8841 54.3098 23.9022C53.5481 23.9208 52.7434 23.7882 51.8938 23.7882ZM41.4337 18.8363H48.3894C49.239 18.8363 49.8673 18.8272 50.2743 18.8091C50.5466 18.7812 50.8096 18.692 51.0443 18.5478V18.2216C51.0336 17.7965 50.9621 17.3753 50.8319 16.9714C50.5455 16.044 49.9695 15.2386 49.1925 14.6788C48.4155 14.1191 47.4805 13.836 46.5311 13.873C45.6375 13.8177 44.7475 14.0298 43.9697 14.4835C43.1918 14.9371 42.5597 15.6127 42.1505 16.4278C41.7867 17.186 41.5447 17.9993 41.4337 18.8363Z" fill="white"/>
</svg>
