<svg width="44" height="38" viewBox="0 0 44 38" fill="none" xmlns="http://www.w3.org/2000/svg">
<path d="M22.3447 29.716H9.89792L7.36548 37.5162C7.33096 37.6584 7.2475 37.7842 7.12946 37.872C7.01143 37.9598 6.86622 38.004 6.71885 37.997H0.414639C0.0551261 37.997 -0.0706003 37.8011 0.0374612 37.4093L10.8139 6.63624C10.9217 6.31574 11.0295 5.95067 11.1372 5.541C11.2782 4.82821 11.3504 4.10372 11.3528 3.37735C11.3455 3.32655 11.3502 3.27476 11.3666 3.22607C11.3829 3.17739 11.4105 3.13316 11.4471 3.09687C11.4837 3.06058 11.5283 3.03323 11.5774 3.01699C11.6265 3.00075 11.6787 2.99607 11.73 3.00331H20.2971C20.5481 3.00331 20.6918 3.09237 20.7282 3.27049L32.9596 37.4627C33.0673 37.8192 32.9595 37.9973 32.6362 37.997H25.6315C25.5112 38.0102 25.3901 37.9795 25.291 37.9107C25.1918 37.8419 25.1213 37.7396 25.0927 37.623L22.3447 29.716ZM11.8377 22.9845H20.3511C20.1355 22.2724 19.8841 21.471 19.5967 20.5803C19.3088 19.6904 19.0035 18.7377 18.6808 17.722C18.3574 16.707 18.0341 15.6919 17.7108 14.6768C17.3875 13.6617 17.0912 12.6823 16.8218 11.7384C16.5523 10.7951 16.3099 9.93141 16.0944 9.14727H16.0405C15.7372 10.5902 15.3595 12.0167 14.909 13.4213C14.4056 15.0241 13.8936 16.6624 13.3733 18.3364C12.8521 20.011 12.3403 21.5603 11.8376 22.9845H11.8377Z" fill="white"/>
<path d="M39.9229 8.40958C39.3969 8.43166 38.8723 8.33745 38.3836 8.13312C37.8948 7.92878 37.4528 7.61893 37.0865 7.22381C36.7212 6.81156 36.4375 6.32792 36.2516 5.80068C36.0657 5.27344 35.9814 4.713 36.0034 4.15158C35.9847 3.59572 36.0784 3.04197 36.2783 2.52651C36.4782 2.01106 36.78 1.54547 37.1638 1.16018C37.5439 0.778873 37.9925 0.480127 38.4838 0.281222C38.9751 0.0823171 39.4992 -0.0127971 40.0259 0.00138096C41.2637 0.00138096 42.2349 0.387646 42.9397 1.16018C43.2954 1.56166 43.5719 2.03253 43.7533 2.54584C43.9347 3.05914 44.0174 3.60481 43.9968 4.15158C44.0183 4.71519 43.9313 5.27758 43.7409 5.80534C43.5504 6.33311 43.2604 6.81548 42.8881 7.22381C42.4989 7.62472 42.0346 7.93706 41.5242 8.14114C41.0139 8.34522 40.4687 8.43662 39.9229 8.40958ZM36.3644 37.461V11.6973C36.3644 11.374 36.5014 11.2123 36.777 11.2123H43.1202C43.395 11.2123 43.5325 11.374 43.5327 11.6973V37.461C43.5327 37.8206 43.3952 38.0003 43.1202 38H36.8286C36.5192 38 36.3645 37.8203 36.3644 37.461Z" fill="white"/>
</svg>
