<svg width="51" height="41" viewBox="0 0 51 41" fill="none" xmlns="http://www.w3.org/2000/svg">
<path d="M26.0089 23.1765C26.1057 21.4087 26.9515 19.8513 28.2274 18.7472C29.4787 17.6628 31.1629 17 33.0005 17C34.8364 17 36.5206 17.6628 37.7728 18.7472C39.0478 19.8513 39.8935 21.4087 39.9913 23.1747C40.0881 24.9911 39.3748 26.6785 38.1235 27.9293C36.8475 29.2016 35.0327 30 33.0005 30C30.9684 30 29.1499 29.2016 27.8749 27.9293C26.6227 26.6785 25.9112 24.9911 26.0089 23.1765Z" fill="white"/>
<path d="M15.6209 26.4544C15.6326 27.1132 15.8449 28.3934 16.1633 29.3931C16.8326 31.5092 17.9678 33.4668 19.5474 35.1921C21.1684 36.9654 23.1645 38.3898 25.47 39.4011C27.8933 40.4632 30.5191 41.0044 33.2465 41C35.9694 40.9964 38.5952 40.4445 41.0186 39.3744C43.3241 38.3533 45.3184 36.9227 46.9366 35.1485C48.5153 33.4161 49.6488 31.4549 50.3198 29.3388C50.6571 28.2696 50.8703 27.1844 50.9558 26.0957C51.0395 25.0229 51.0044 23.9484 50.8505 22.8748C50.5501 20.7827 49.8188 18.8198 48.6926 17.0304C47.6626 15.3861 46.3348 13.9466 44.7562 12.735L44.7598 12.7324L28.828 0.62606C28.8136 0.615378 28.8019 0.603805 28.7866 0.594012C27.7413 -0.200077 25.9836 -0.197407 24.834 0.598463C23.6718 1.40323 23.5387 2.73414 24.5731 3.57363L24.5686 3.57808L31.2136 8.92572L10.9604 8.94708C10.9505 8.94708 10.9406 8.94708 10.9334 8.94708C9.25934 8.94886 7.65006 10.0358 7.33162 11.4095C7.00419 12.8089 8.14121 13.9698 9.88182 13.976L9.87912 13.9822L20.1447 13.9627L1.82642 27.8779C1.80304 27.8948 1.77785 27.9126 1.75626 27.9296C0.0282406 29.2391 -0.530375 31.4166 0.55807 32.7947C1.66271 34.1959 4.01141 34.1986 5.75742 32.8027L15.7549 24.7051C15.7549 24.7051 15.6092 25.7983 15.6209 26.4544ZM41.3109 30.1151C39.251 32.192 36.367 33.3698 33.2465 33.376C30.1215 33.3813 27.2376 32.2143 25.1776 30.1409C24.171 29.1305 23.4316 27.9678 22.9755 26.7295C22.5285 25.5126 22.3549 24.2208 22.47 22.9175C22.5789 21.6436 22.9621 20.4284 23.5737 19.329C24.1746 18.2483 25.0022 17.2717 26.0241 16.4455C28.0265 14.8306 30.5758 13.9564 33.242 13.9529C35.911 13.9493 38.4585 14.8155 40.4626 16.4251C41.4827 17.2476 42.3094 18.2207 42.9103 19.2996C43.5247 20.3982 43.9052 21.6089 44.0185 22.8864C44.1319 24.1879 43.9583 25.4778 43.5112 26.6957C43.0542 27.9376 42.3175 29.1002 41.3109 30.1151Z" fill="white"/>
</svg>
