<?xml version="1.0" encoding="utf-8"?>
<!-- Generator: Adobe Illustrator 26.5.0, SVG Export Plug-In . SVG Version: 6.00 Build 0)  -->
<svg version="1.1" id="Camada_1" xmlns="http://www.w3.org/2000/svg" xmlns:xlink="http://www.w3.org/1999/xlink" x="0px" y="0px"
	 viewBox="0 0 38 57" style="enable-background:new 0 0 38 57;" xml:space="preserve">
<style type="text/css">
	.st0{fill:#FFFFFF;}
</style>
<path class="st0" d="M19.3,28.5c0-1.5,0.6-3,1.7-4.1c1.1-1.1,2.6-1.7,4.1-1.7s3,0.6,4.1,1.7c1.1,1.1,1.7,2.6,1.7,4.1s-0.6,3-1.7,4.1
	c-1.1,1.1-2.6,1.7-4.1,1.7s-3-0.6-4.1-1.7C19.9,31.5,19.3,30,19.3,28.5z"/>
<path class="st0" d="M8.8,44.8c-1.1-1.1-1.7-2.6-1.7-4.1c0-1.5,0.6-3,1.7-4.1c1.1-1.1,2.6-1.7,4.1-1.7h5.8v5.8c0,1.5-0.6,3-1.7,4.1
	c-1.1,1.1-2.6,1.7-4.1,1.7C11.4,46.5,9.9,45.9,8.8,44.8z"/>
<path class="st0" d="M25.1,22.1h-5.8V10.5h5.8c1.5,0,3,0.6,4.1,1.7c1.1,1.1,1.7,2.6,1.7,4.1c0,1.5-0.6,3-1.7,4.1
	C28.1,21.5,26.6,22.1,25.1,22.1z"/>
<path class="st0" d="M8.8,20.4c-1.1-1.1-1.7-2.6-1.7-4.1c0-1.5,0.6-3,1.7-4.1s2.6-1.7,4.1-1.7h5.8v11.6h-5.8
	C11.4,22.1,9.9,21.5,8.8,20.4z"/>
<path class="st0" d="M8.8,32.6c-1.1-1.1-1.7-2.6-1.7-4.1s0.6-3,1.7-4.1c1.1-1.1,2.6-1.7,4.1-1.7h5.8v11.6h-5.8
	C11.4,34.3,9.9,33.7,8.8,32.6z"/>
</svg>
