<?xml version="1.0" encoding="utf-8"?>
<!-- Generator: Adobe Illustrator 26.5.0, SVG Export Plug-In . SVG Version: 6.00 Build 0)  -->
<svg version="1.1" id="Camada_1" xmlns="http://www.w3.org/2000/svg" xmlns:xlink="http://www.w3.org/1999/xlink" x="0px" y="0px"
	 viewBox="0 0 38 39" style="enable-background:new 0 0 38 39;" xml:space="preserve">
<style type="text/css">
	.st0{fill:#FFFFFF;}
</style>
<path class="st0" d="M10,6.3v27.9c0,0.3-0.1,0.4-0.4,0.4H3.8c-0.3,0-0.4-0.1-0.4-0.4V6.3C3.4,6.1,3.6,6,3.9,6h5.7c0.1,0,0.1,0,0.2,0
	c0,0,0.1,0,0.1,0.1c0,0,0.1,0.1,0.1,0.1C10,6.2,10,6.3,10,6.3z"/>
<path class="st0" d="M25.6,35.5c-2,0-4-0.4-5.9-1.2c-1.7-0.8-3.2-2.1-4.1-3.8c-1-1.7-1.5-3.8-1.5-6.3c0-2,0.5-4,1.5-5.8
	c1-1.8,2.5-3.3,4.4-4.3c1.9-1.1,4.2-1.6,6.9-1.6c0.1,0,0.3,0,0.6,0c0.2,0,0.5,0,0.8,0.1V3.8c0-0.2,0.1-0.3,0.3-0.3h5.6
	c0,0,0.1,0,0.1,0c0,0,0.1,0,0.1,0.1c0,0,0,0.1,0.1,0.1c0,0,0,0.1,0,0.1v26.3c0,0.5,0,1.1,0.1,1.6c0,0.6,0.1,1.1,0.1,1.6
	c0,0.1,0,0.2-0.1,0.3c0,0.1-0.1,0.1-0.2,0.2c-1.4,0.6-2.9,1-4.5,1.3C28.4,35.3,27,35.5,25.6,35.5z M28.3,30V17.8
	c-0.2-0.1-0.5-0.1-0.7-0.1c-0.3,0-0.6,0-0.9,0c-1.1,0-2.1,0.2-3.1,0.7c-0.9,0.5-1.7,1.2-2.3,2c-0.6,0.9-0.9,2.1-0.9,3.5
	c0,1,0.1,1.9,0.5,2.8c0.3,0.7,0.7,1.4,1.2,2c0.5,0.5,1.2,0.9,1.9,1.1c0.7,0.2,1.5,0.4,2.3,0.4c0.4,0,0.8,0,1.1,0
	C27.7,30.1,28,30.1,28.3,30z"/>
</svg>
