<svg width="72" height="72" viewBox="0 0 72 72" fill="none" xmlns="http://www.w3.org/2000/svg">
<rect width="72" height="72" rx="4" fill="white"/>
<path fill-rule="evenodd" clip-rule="evenodd" d="M28.5791 19.0079C30.4985 18.9195 31.1105 18.8999 36 18.8999C40.8895 18.8999 41.5015 18.9212 43.4193 19.0079C45.3371 19.0946 46.6462 19.4006 47.7916 19.8441C48.9911 20.2974 50.0793 21.0059 50.9793 21.9223C51.8956 22.8206 52.6025 23.9072 53.0542 25.1083C53.4993 26.2537 53.8036 27.5628 53.892 29.4774C53.9804 31.4001 54 32.0121 54 36.8999C54 41.7894 53.9787 42.4014 53.892 44.3208C53.8053 46.2354 53.4993 47.5444 53.0542 48.6899C52.6025 49.8911 51.8945 50.9795 50.9793 51.8792C50.0793 52.7955 48.9911 53.5024 47.7916 53.9541C46.6462 54.3992 45.3371 54.7035 43.4225 54.7919C41.5015 54.8803 40.8895 54.8999 36 54.8999C31.1105 54.8999 30.4985 54.8786 28.5791 54.7919C26.6645 54.7052 25.3555 54.3992 24.21 53.9541C23.0088 53.5024 21.9204 52.7943 21.0207 51.8792C20.105 50.9803 19.3963 49.8924 18.9442 48.6915C18.5007 47.5461 18.1964 46.237 18.108 44.3224C18.0196 42.3997 18 41.7877 18 36.8999C18 32.0104 18.0213 31.3984 18.108 29.4806C18.1947 27.5628 18.5007 26.2537 18.9442 25.1083C19.397 23.9073 20.1062 22.8195 21.0224 21.9206C21.9208 21.0051 23.008 20.2964 24.2084 19.8441C25.3538 19.4006 26.6629 19.0963 28.5775 19.0079H28.5791ZM43.2736 22.2479C41.3755 22.1612 40.806 22.1432 36 22.1432C31.194 22.1432 30.6245 22.1612 28.7264 22.2479C26.9705 22.3281 26.0182 22.621 25.3833 22.8681C24.5438 23.1954 23.9433 23.5832 23.3133 24.2132C22.7161 24.7942 22.2565 25.5015 21.9682 26.2832C21.7211 26.9181 21.4282 27.8704 21.348 29.6263C21.2613 31.5244 21.2433 32.0939 21.2433 36.8999C21.2433 41.7059 21.2613 42.2754 21.348 44.1735C21.4282 45.9294 21.7211 46.8817 21.9682 47.5166C22.2562 48.2972 22.716 49.0057 23.3133 49.5866C23.8942 50.1839 24.6027 50.6437 25.3833 50.9317C26.0182 51.1788 26.9705 51.4717 28.7264 51.5519C30.6245 51.6386 31.1924 51.6566 36 51.6566C40.8076 51.6566 41.3755 51.6386 43.2736 51.5519C45.0295 51.4717 45.9818 51.1788 46.6167 50.9317C47.4562 50.6044 48.0567 50.2166 48.6867 49.5866C49.284 49.0057 49.7438 48.2972 50.0318 47.5166C50.2789 46.8817 50.5718 45.9294 50.652 44.1735C50.7387 42.2754 50.7567 41.7059 50.7567 36.8999C50.7567 32.0939 50.7387 31.5244 50.652 29.6263C50.5718 27.8704 50.2789 26.9181 50.0318 26.2832C49.7045 25.4437 49.3167 24.8432 48.6867 24.2132C48.1057 23.616 47.3984 23.1564 46.6167 22.8681C45.9818 22.621 45.0295 22.3281 43.2736 22.2479V22.2479ZM33.7009 42.4488C34.9849 42.9833 36.4146 43.0554 37.7459 42.6529C39.0771 42.2504 40.2274 41.3981 41.0001 40.2418C41.7728 39.0854 42.1201 37.6966 41.9826 36.3126C41.8452 34.9286 41.2315 33.6353 40.2464 32.6535C39.6184 32.026 38.8591 31.5454 38.0231 31.2465C37.1871 30.9476 36.2952 30.8378 35.4117 30.9249C34.5282 31.0121 33.675 31.294 32.9135 31.7505C32.152 32.2069 31.5012 32.8266 31.0079 33.5647C30.5147 34.3029 30.1912 35.1413 30.0608 36.0195C29.9305 36.8977 29.9964 37.7938 30.254 38.6435C30.5115 39.4931 30.9542 40.2751 31.5503 40.9331C32.1463 41.5911 32.8808 42.1087 33.7009 42.4488ZM29.4578 30.3577C30.3169 29.4986 31.3369 28.8171 32.4594 28.3521C33.5819 27.8872 34.785 27.6479 36 27.6479C37.215 27.6479 38.4181 27.8872 39.5406 28.3521C40.6631 28.8171 41.6831 29.4986 42.5422 30.3577C43.4013 31.2169 44.0828 32.2368 44.5478 33.3593C45.0127 34.4818 45.252 35.6849 45.252 36.8999C45.252 38.1149 45.0127 39.318 44.5478 40.4405C44.0828 41.563 43.4013 42.583 42.5422 43.4421C40.8071 45.1772 38.4538 46.1519 36 46.1519C33.5462 46.1519 31.1929 45.1772 29.4578 43.4421C27.7227 41.707 26.748 39.3537 26.748 36.8999C26.748 34.4461 27.7227 32.0928 29.4578 30.3577V30.3577ZM47.304 29.0257C47.5169 28.8249 47.6873 28.5834 47.8052 28.3155C47.9231 28.0476 47.9861 27.7588 47.9903 27.4662C47.9946 27.1735 47.9401 26.883 47.8301 26.6118C47.72 26.3406 47.5567 26.0942 47.3498 25.8872C47.1428 25.6803 46.8964 25.517 46.6252 25.4069C46.354 25.2969 46.0635 25.2424 45.7708 25.2467C45.4782 25.2509 45.1894 25.3139 44.9215 25.4318C44.6536 25.5497 44.4121 25.7201 44.2113 25.933C43.8207 26.347 43.6069 26.897 43.6151 27.4662C43.6234 28.0353 43.8532 28.5788 44.2557 28.9813C44.6582 29.3838 45.2017 29.6135 45.7708 29.6218C46.34 29.6301 46.89 29.4163 47.304 29.0257V29.0257Z" fill="#131313"/>
</svg>
