<svg width="46" height="35" viewBox="0 0 46 35" fill="none" xmlns="http://www.w3.org/2000/svg">
<path d="M0 34.5704V0.561851C0 0.330501 0.0992063 0.1983 0.330688 0.1983C0.892857 0.1983 1.42196 0.1983 2.18254 0.16525C2.97619 0.1322 3.80291 0.1322 4.69577 0.0991499C5.58862 0.0660998 6.54762 0.0660996 7.57275 0.0330495C8.59788 -5.04796e-07 9.58995 0 10.582 0C13.2936 0 15.5423 0.3305 17.3942 1.02455C19.0476 1.5864 20.5688 2.5118 21.8254 3.73466C22.8836 4.79226 23.7103 6.08121 24.2394 7.50236C24.7354 8.89046 25 10.3116 25 11.7989C25 14.6412 24.3386 16.9877 23.0159 18.8385C21.6931 20.6893 19.8413 22.0774 17.6918 22.8706C15.4431 23.6969 12.963 23.9943 10.2513 23.9943C9.45767 23.9943 8.92857 23.9943 8.59788 23.9613C8.26719 23.9282 7.80423 23.9282 7.17592 23.9282V34.5373C7.20899 34.7687 7.04365 34.9669 6.81217 35C6.7791 35 6.74603 35 6.67989 35H0.396826C0.132275 35 0 34.8678 0 34.5704ZM7.20899 6.57696V17.6818C7.67196 17.7148 8.10185 17.7479 8.49868 17.7479H10.2513C11.541 17.7479 12.8307 17.5496 14.0542 17.153C15.1124 16.8555 16.0384 16.2276 16.7659 15.4013C17.4603 14.5751 17.791 13.4514 17.791 11.9972C17.8241 10.9726 17.5595 9.94806 17.0304 9.05571C16.4683 8.19641 15.6746 7.53541 14.7156 7.17186C13.4921 6.67611 12.1693 6.47781 10.8135 6.51086C9.9537 6.51086 9.19312 6.51086 8.56481 6.54391C7.90344 6.51086 7.44048 6.54391 7.20899 6.57696Z" fill="white"/>
<path d="M30.3313 8.56446H36.0201C36.3452 8.56446 36.6053 8.79516 36.7028 9.09177C36.8003 9.35543 36.8653 9.61908 36.8979 9.91569C36.9629 10.2453 37.0279 10.6078 37.0604 10.9374C37.0929 11.2999 37.1254 11.6954 37.1254 12.1238C38.1006 10.9703 39.2709 10.0146 40.6037 9.28952C42.0991 8.43264 43.822 8.0042 45.5449 8.0042C45.7724 7.97124 45.9675 8.13603 46 8.36672C46 8.39968 46 8.43264 46 8.49855V14.9251C46 15.1888 45.8375 15.2877 45.4799 15.2877C44.3096 15.2547 43.1068 15.3536 41.969 15.6172C41.0263 15.815 40.1161 16.1116 39.2384 16.5071C38.6208 16.8037 38.0356 17.1991 37.5805 17.7265V34.5344C37.5805 34.864 37.4505 34.9958 37.1579 34.9958H30.7539C30.4938 35.0288 30.2663 34.864 30.2338 34.6003C30.2338 34.5674 30.2338 34.5015 30.2338 34.4685V16.2104C30.2338 15.4195 30.2338 14.5956 30.2013 13.7387C30.1688 12.8818 30.1688 12.0249 30.1363 11.1681C30.1363 10.41 30.0712 9.685 30.0062 8.92699C29.9737 8.76221 30.0712 8.59742 30.2338 8.56446C30.2338 8.53151 30.2988 8.53151 30.3313 8.56446Z" fill="white"/>
</svg>
