<svg width="48" height="36" viewBox="0 0 48 36" fill="none" xmlns="http://www.w3.org/2000/svg">
<path d="M0 34.5696V0.532711C0 0.284657 0.106455 0.15985 0.31921 0.15985C0.885851 0.15985 1.40324 0.151529 2.18361 0.133194C2.96316 0.115745 3.80525 0.0980023 4.70986 0.0799647C5.61411 0.0624366 6.57147 0.0446673 7.58194 0.0266562C8.59232 0.00920746 9.59393 0.000322021 10.5868 0C13.2809 0 15.5501 0.337359 17.3944 1.01208C19.058 1.57566 20.5751 2.5037 21.8354 3.72862C22.9037 4.79036 23.7293 6.07158 24.2552 7.48389C24.7528 8.85834 25.0049 10.3098 24.9999 11.7718C24.9999 14.6132 24.344 16.9569 23.0321 18.8029C21.7115 20.6565 19.8553 22.0601 17.7136 22.8245C15.4798 23.6592 12.9976 23.9423 10.2677 23.9423C9.48739 23.9423 8.93779 23.9335 8.61896 23.9157C8.29991 23.8982 7.82128 23.8893 7.18308 23.889V34.5163C7.19235 34.5815 7.18637 34.6479 7.16559 34.7103C7.14481 34.7727 7.10981 34.8294 7.06336 34.8759C7.01691 34.9224 6.96029 34.9575 6.89797 34.9783C6.83566 34.9991 6.76937 35.005 6.70434 34.9957H0.372276C0.123877 34.9957 0 34.8542 0 34.5696ZM7.18305 6.55172V17.6532C7.6434 17.689 8.06885 17.7067 8.45941 17.7064H10.2145C11.5059 17.7021 12.7887 17.497 14.0173 17.0984C15.0709 16.785 16.0124 16.1748 16.7297 15.3406C17.421 14.5242 17.7667 13.3879 17.7668 11.9316C17.7949 10.9013 17.5272 9.88449 16.9955 9.00194C16.4366 8.14858 15.6288 7.48836 14.682 7.11105C13.4457 6.62977 12.1252 6.40332 10.7995 6.44525C9.94851 6.44525 9.19509 6.45411 8.53925 6.47183C7.88277 6.49016 7.4307 6.51679 7.18305 6.55171V6.55172Z" fill="white"/>
<path d="M45.9462 15.5825C44.9573 15.0596 43.904 14.677 42.8152 14.4453C41.6155 14.162 40.3889 14.0167 39.158 14.012C38.4922 13.9934 37.8273 14.0755 37.1847 14.2557C36.7756 14.3495 36.4121 14.5893 36.1585 14.9326C35.987 15.2073 35.8957 15.5268 35.8955 15.8533C35.9051 16.17 36.0161 16.4746 36.2112 16.7198C36.5186 17.0898 36.8941 17.3935 37.3162 17.6133C38.0665 18.0291 38.8396 18.3998 39.6315 18.7235C41.3976 19.3319 43.0852 20.1593 44.6569 21.1875C45.7276 21.883 46.6137 22.8413 47.2354 23.9765C47.7582 25.0513 48.02 26.2406 47.9984 27.4424C48.0299 29.0294 47.5893 30.5883 46.7356 31.9102C45.8216 33.2521 44.5521 34.2953 43.0782 34.9157C41.4815 35.6375 39.5082 35.9986 37.1584 35.9989C35.6656 36.0144 34.1753 35.8692 32.7118 35.5656C31.5588 35.348 30.4364 34.9842 29.3703 34.4825C29.2553 34.4214 29.1595 34.3278 29.0943 34.2127C29.0291 34.0976 28.9971 33.9658 29.002 33.8326V27.9839C28.9957 27.9267 29.0046 27.8687 29.0277 27.8163C29.0509 27.7638 29.0875 27.7188 29.1336 27.6861C29.1788 27.6598 29.2307 27.6483 29.2824 27.6531C29.3341 27.658 29.3832 27.6789 29.423 27.7132C30.682 28.4772 32.049 29.0344 33.4748 29.3649C34.7316 29.6891 36.0207 29.8617 37.3162 29.8794C38.5438 29.8794 39.4471 29.7169 40.0262 29.392C40.2877 29.2688 40.5089 29.0702 40.663 28.8203C40.8171 28.5704 40.8976 28.2799 40.8945 27.9839C40.8945 27.5152 40.6314 27.0639 40.1052 26.6301C39.5791 26.1968 38.509 25.6733 36.8952 25.0596C35.2429 24.4677 33.6763 23.6479 32.2382 22.6226C31.2096 21.8864 30.3626 20.9128 29.765 19.7795C29.2475 18.7123 28.9859 17.5332 29.002 16.3407C28.9991 14.9078 29.3815 13.5021 30.107 12.2791C30.9342 10.9323 32.1221 9.86038 33.5275 9.19226C35.0708 8.39856 37.0002 8.00143 39.3159 8.00085C40.6721 7.98963 42.0269 8.08923 43.3678 8.2987C44.3387 8.42544 45.288 8.68969 46.1886 9.08394C46.2601 9.10504 46.3258 9.14292 46.3805 9.19461C46.4353 9.2463 46.4777 9.31037 46.5043 9.38179C46.5399 9.51405 46.5576 9.65072 46.557 9.78795V15.2576C46.5606 15.3212 46.5479 15.3847 46.5202 15.4418C46.4925 15.4988 46.4508 15.5473 46.3991 15.5825C46.3288 15.6185 46.2513 15.6373 46.1727 15.6373C46.0941 15.6373 46.0166 15.6186 45.9462 15.5825Z" fill="white"/>
</svg>
