<svg width="72" height="72" viewBox="0 0 72 72" fill="none" xmlns="http://www.w3.org/2000/svg">
<rect width="72" height="72" rx="4" fill="white"/>
<path fill-rule="evenodd" clip-rule="evenodd" d="M44.2482 39.573C43.7991 39.3495 41.597 38.2725 41.187 38.1225C40.7771 37.974 40.4787 37.9005 40.1787 38.3475C39.8803 38.7915 39.0227 39.7965 38.7619 40.0935C38.4997 40.392 38.2389 40.428 37.7913 40.206C37.3436 39.981 35.8997 39.5115 34.189 37.9935C32.8582 36.8115 31.9584 35.352 31.6976 34.905C31.4369 34.4595 31.669 34.218 31.8935 33.996C32.0955 33.7965 32.3412 33.4755 32.5658 33.216C32.7903 32.955 32.8642 32.769 33.0134 32.4705C33.1641 32.1735 33.0888 31.914 32.9757 31.6905C32.8642 31.467 31.9689 29.2725 31.5951 28.38C31.2319 27.5115 30.8626 27.63 30.5883 27.615C30.326 27.603 30.0276 27.6 29.7292 27.6C29.4307 27.6 28.9454 27.711 28.5355 28.158C28.124 28.6035 26.9679 29.682 26.9679 31.8765C26.9679 34.0695 28.5716 36.189 28.7962 36.4875C29.0208 36.7845 31.9538 41.2875 36.4468 43.218C37.517 43.677 38.3505 43.9515 39.0001 44.1555C40.0732 44.496 41.0499 44.448 41.8216 44.3325C42.6807 44.205 44.4713 43.254 44.8451 42.213C45.2174 41.172 45.2174 40.2795 45.1058 40.0935C44.9943 39.9075 44.6959 39.7965 44.2467 39.573H44.2482ZM36.0761 50.6775H36.07C33.4014 50.678 30.7818 49.964 28.4857 48.6105L27.9431 48.2895L22.3031 49.7625L23.8088 44.2905L23.4546 43.7295C21.9627 41.366 21.1731 38.6307 21.1772 35.8395C21.1802 27.6645 27.8632 21.0136 36.0821 21.0136C40.0612 21.0136 43.8021 22.5586 46.6145 25.3605C48.0018 26.7354 49.1013 28.3704 49.8494 30.1709C50.5976 31.9714 50.9797 33.9017 50.9734 35.85C50.9704 44.025 44.2874 50.6775 36.0761 50.6775V50.6775ZM48.7548 23.2321C47.0941 21.5684 45.1182 20.2494 42.9416 19.3513C40.7649 18.4532 38.4309 17.9939 36.0746 18.0001C26.1963 18.0001 18.1537 26.0025 18.1507 35.838C18.1461 38.9682 18.9712 42.0441 20.5427 44.7555L18 54L27.5015 51.519C30.1299 52.9442 33.0753 53.6909 36.0685 53.691H36.0761C45.9544 53.691 53.9969 45.6885 53.9999 35.8515C54.0072 33.5074 53.5474 31.1852 52.6471 29.0191C51.7468 26.853 50.4238 24.8861 48.7548 23.2321" fill="#131313"/>
</svg>
