<svg width="57" height="39" viewBox="0 0 57 39" fill="none" xmlns="http://www.w3.org/2000/svg">
<path d="M30.3279 3.42837L20.3723 19.8604L31.0237 37.3094C31.092 37.4315 31.1112 37.575 31.0772 37.7108C31.0412 37.8363 30.9167 37.7572 30.7026 37.7924H23.1022C22.5668 37.7924 22.1922 37.7735 21.978 37.4164C21.2638 36.0248 20.5501 34.6421 19.8371 33.2683C19.1228 31.895 18.3646 30.4944 17.5624 29.0666C16.7595 27.6399 15.9655 26.1947 15.1805 24.7311H15.1269C14.4127 26.1587 13.6722 27.586 12.9056 29.0131C12.138 30.4407 11.3797 31.8591 10.6309 33.2683C9.88159 34.6783 9.11442 36.0788 8.32939 37.47C8.18639 37.7911 7.93624 37.8242 7.57992 37.8242H0.247187C0.104985 37.8242 0.0246348 37.8806 0.00629022 37.7376C-0.0138497 37.607 0.0147525 37.4737 0.0866432 37.3629L10.4168 20.3956L0.354163 3.3748C0.247187 3.23269 0.22933 3.11673 0.300592 3.02693C0.340113 2.98126 0.389703 2.9454 0.445453 2.92217C0.501203 2.89895 0.561586 2.88899 0.621841 2.89309H8.16869C8.33325 2.88402 8.49778 2.91146 8.65049 2.97344C8.77846 3.04595 8.88826 3.14662 8.97157 3.26783C9.61391 4.69535 10.3276 6.12266 11.1125 7.54975C11.8971 8.97736 12.691 10.3868 13.4944 11.7782C14.2973 13.1698 15.0377 14.5793 15.7157 16.0066H15.7693C16.4825 14.5439 17.2051 13.1166 17.937 11.7247C18.668 10.3331 19.4173 8.93247 20.1849 7.52297C20.952 6.11379 21.6924 4.71324 22.4063 3.32132C22.4473 3.18923 22.5209 3.06959 22.6204 2.97345C22.7525 2.90635 22.9011 2.87847 23.0486 2.89309H30.0602C30.1278 2.87641 30.1991 2.88322 30.2623 2.91241C30.3256 2.9416 30.377 2.99143 30.4081 3.05371C30.4392 3.11599 30.4483 3.18701 30.4337 3.2551C30.4191 3.32319 30.3818 3.3843 30.3279 3.42838L30.3279 3.42837Z" fill="white"/>
<path d="M45.6889 38.487C43.2253 38.5245 40.7842 38.0125 38.5433 36.9883C36.4557 36.0221 34.7106 34.445 33.5389 32.4655C32.3253 30.4499 31.7187 27.9253 31.719 24.8918C31.6988 22.4352 32.3266 20.0167 33.5389 17.88C34.7876 15.7036 36.624 13.9229 38.8378 12.7416C41.1568 11.4571 43.9579 10.8148 47.2411 10.8148C47.4192 10.8148 47.6511 10.8237 47.9368 10.8416C48.222 10.8599 48.561 10.8867 48.9538 10.9219V0.377528C48.9538 0.12827 49.061 0.00285671 49.2751 0.00285671H56.019C56.0627 -0.00337891 56.1071 0.000626104 56.1489 0.0145546C56.1908 0.028483 56.2287 0.0519518 56.2599 0.0831044C56.2911 0.114257 56.3146 0.152238 56.3285 0.19404C56.3425 0.235842 56.3465 0.280317 56.3403 0.323944V31.957C56.3403 32.5642 56.367 33.2243 56.4205 33.9374C56.474 34.6515 56.5187 35.2938 56.5544 35.8642C56.561 35.9754 56.5338 36.086 56.4765 36.1815C56.4192 36.277 56.3344 36.353 56.2331 36.3995C54.4933 37.1251 52.6811 37.6634 50.8273 38.0052C49.1322 38.3181 47.4126 38.4793 45.6889 38.487ZM48.9538 31.8499V17.2378C48.6645 17.1594 48.3691 17.1057 48.0707 17.0771C47.7061 17.0405 47.3398 17.0226 46.9734 17.0236C45.6745 17.0107 44.3909 17.3041 43.2267 17.88C42.0927 18.4437 41.1245 19.2921 40.4167 20.3421C39.685 21.4126 39.3192 22.8221 39.3194 24.5706C39.2933 25.7374 39.4839 26.8989 39.8814 27.9961C40.2049 28.8803 40.7162 29.6838 41.3802 30.3512C42.0158 30.9653 42.7853 31.4234 43.6281 31.6894C44.5184 31.9776 45.4489 32.1222 46.3846 32.1175C46.8839 32.1175 47.3478 32.0997 47.7763 32.064C48.1752 32.034 48.5698 31.9622 48.9538 31.8499Z" fill="white"/>
</svg>
