<svg width="72" height="72" viewBox="0 0 72 72" fill="none" xmlns="http://www.w3.org/2000/svg">
<rect width="72" height="72" rx="4" fill="white"/>
<path d="M53.2487 26.4415C53.0437 25.6783 52.6419 24.9823 52.0835 24.4231C51.525 23.8639 50.8295 23.4613 50.0665 23.2554C47.258 22.5 36 22.5 36 22.5C36 22.5 24.742 22.5 21.9335 23.2513C21.1702 23.4566 20.4743 23.859 19.9157 24.4183C19.3572 24.9775 18.9556 25.6739 18.7513 26.4375C18 29.25 18 35.1161 18 35.1161C18 35.1161 18 40.9821 18.7513 43.7906C19.1652 45.3415 20.3866 46.5629 21.9335 46.9768C24.742 47.7321 36 47.7321 36 47.7321C36 47.7321 47.258 47.7321 50.0665 46.9768C51.6174 46.5629 52.8348 45.3415 53.2487 43.7906C54 40.9821 54 35.1161 54 35.1161C54 35.1161 54 29.25 53.2487 26.4415ZM32.4241 40.5V29.7321L41.7455 35.0759L32.4241 40.5Z" fill="#131313"/>
</svg>
